<?xml version="1.0" encoding="UTF-8"?>
<svg id="Illustration" xmlns="http://www.w3.org/2000/svg" version="1.1" viewBox="0 0 2742.8 1830">
  <!-- Generator: Adobe Illustrator 29.1.0, SVG Export Plug-In . SVG Version: 2.1.0 Build 142)  -->
  <defs>
    <style>
      .st0 {
        fill: #fff;
      }

      .st1 {
        fill: #faba40;
      }

      .st2 {
        fill: #18181b;
      }
    </style>
  </defs>
  <g id="Heat_pump">
    <g>
      <path class="st2" d="M1247.6,365.8c-15-6-31.8-5.1-46.3,1.9-3.5,1.7-6.9,3.7-10.1,6,1-.9,2-1.7,3-2.6.9-.8-.2-2-1.2-1.3-31.1,21.8-62.2,55.5-57.5,96.5,2,17.7,11.8,33.2,26.5,43.1,15.2,10.3,33.6,13.8,51.7,11,37-5.6,69-35.7,76.5-72.4,6.8-33.1-10.6-69.4-42.6-82.1Z"/>
      <path class="st1" d="M1285.2,1233.5l220.1-264.7,122,11.7,136.6-317.8s-311.5-155.2-534.1-175.6c-116.6-10.7-690.7,565.1-825.6,746.4h881Z"/>
      <g>
        <path class="st0" d="M1294.5,380.9l-122.8,142.7c-22.8,26.5-22.9,65.7-.3,92.3,37.1,43.6,95.7,103.4,149.9,119.7,88,26.6,50.4-76.3,13-146.2,0,0-9.4-206.5-39.9-208.5Z"/>
        <path class="st2" d="M1269.5,628.3c-.4,0-.8-.1-1.2-.4-1-.7-1.3-2-.6-3l48.9-75c.7-1,2-1.3,3-.6,1,.7,1.3,2,.6,3l-48.9,75c-.4.6-1.1,1-1.8,1Z"/>
        <g>
          <path class="st0" d="M1214.2,452.8s100.8,140.1,181.3,111.2c80.6-28.9,72.7-208.9-5.3-305.8,0,0-172.8,26.9-201.9,115l25.9,79.6Z"/>
          <path class="st2" d="M1332.5,560.7c-.3,0-.6,0-.9-.2-61.9-27.4-118.6-105.7-119.2-106.5-.1-.2-.2-.4-.3-.6l-25.9-79.6c-.1-.4-.1-.9,0-1.4,29.2-88.3,196.6-115.4,203.7-116.5.8-.1,1.6.2,2.1.8,29.6,36.9,51.2,88.9,59.3,142.7,7.9,53,2,101.3-16.2,132.6-.6,1.1-2,1.4-3,.8-1.1-.6-1.4-2-.8-3,37.5-64.5,17.2-194.9-41.9-269.3-15.6,2.7-171,31.3-198.7,112.6l25.6,78.6c3.7,5.1,58.2,78.6,117.2,104.7,1.1.5,1.6,1.8,1.1,2.9-.4.8-1.2,1.3-2,1.3Z"/>
          <g>
            <path class="st1" d="M1179.2,407.2l-26.8-17.3s-87.3-126.8,13.4-201.2c154.6-114.2,192.3,3.2,239,69.4l-225.6,149.1Z"/>
            <path class="st1" d="M1168.8,416.5l341.8-192.6c14.4-8.1,10.4-29.8-6-32.3-3.9-.6-7.8.2-11.2,2.1l-341.1,196.1,16.4,26.6Z"/>
          </g>
          <path class="st0" d="M1225.1,413s-57.4-44.4-68.1,4.5c-10.7,48.9,49.5,79.6,86.9,49.9l-18.7-54.4Z"/>
          <path class="st2" d="M1210.3,481.3c-1.1,0-2.2,0-3.4,0-1.2,0-2.1-1.1-2.1-2.3,0-1.2,1.1-2.2,2.3-2.1,13,.7,25.2-3.1,35.3-11.1.9-.8,2.3-.6,3.1.4.8.9.6,2.3-.4,3.1-10,8-22,12.2-34.9,12.2Z"/>
          <path class="st2" d="M1225.1,415.2c-.5,0-.9-.2-1.3-.5-.1,0-11.5-8.8-24.8-14.1-1.1-.4-1.7-1.7-1.2-2.9.4-1.1,1.7-1.7,2.9-1.2,13.9,5.5,25.4,14.3,25.9,14.7,1,.7,1.1,2.1.4,3.1-.4.6-1.1.9-1.7.9Z"/>
          <path class="st2" d="M1222.6,449.5c-.4,0-.8-.1-1.1-.3-8.6-5.3-19.8-6.4-29.3-2.9-1.1.4-2.4-.2-2.8-1.3-.4-1.1.2-2.4,1.3-2.8,10.7-3.9,23.4-2.7,33.1,3.3,1,.6,1.4,2,.7,3-.4.7-1.1,1-1.9,1Z"/>
        </g>
      </g>
    </g>
    <g>
      <g>
        <g>
          <rect class="st0" x="37.2" y="486.8" width="733.8" height="1341"/>
          <path class="st2" d="M771,1830H37.2c-1.2,0-2.2-1-2.2-2.2V486.8c0-1.2,1-2.2,2.2-2.2h733.8c1.2,0,2.2,1,2.2,2.2v358.8c0,1.2-1,2.2-2.2,2.2s-2.2-1-2.2-2.2v-356.6H39.4v1336.6h729.4v-424.1c0-1.2,1-2.2,2.2-2.2s2.2,1,2.2,2.2v426.3c0,1.2-1,2.2-2.2,2.2Z"/>
          <g>
            <polygon class="st0" points="715.4 330.9 92.8 330.9 2.2 498.7 805.9 498.7 715.4 330.9"/>
            <path class="st2" d="M805.9,500.9H2.2c-.8,0-1.5-.4-1.9-1.1-.4-.7-.4-1.5,0-2.2l90.6-167.7c.4-.7,1.1-1.2,1.9-1.2h622.6c.8,0,1.6.4,1.9,1.2l90.6,167.7c.4.7.4,1.5,0,2.2-.4.7-1.1,1.1-1.9,1.1ZM5.9,496.5h796.4l-88.2-163.3H94.1L5.9,496.5Z"/>
          </g>
          <g>
            <g>
              <rect class="st0" x="125.7" y="591.3" width="236.8" height="446.4"/>
              <path class="st2" d="M362.5,1039.9H125.7c-1.2,0-2.2-1-2.2-2.2v-446.4c0-1.2,1-2.2,2.2-2.2h236.8c1.2,0,2.2,1,2.2,2.2v446.4c0,1.2-1,2.2-2.2,2.2ZM127.9,1035.5h232.4v-442H127.9v442Z"/>
            </g>
            <g>
              <rect class="st0" x="438.4" y="591.3" width="236.8" height="446.4"/>
              <path class="st2" d="M675.2,1039.9h-236.8c-1.2,0-2.2-1-2.2-2.2v-446.4c0-1.2,1-2.2,2.2-2.2h236.8c1.2,0,2.2,1,2.2,2.2v446.4c0,1.2-1,2.2-2.2,2.2ZM440.6,1035.5h232.4v-442h-232.4v442Z"/>
            </g>
          </g>
        </g>
        <g>
          <rect class="st0" x="125.7" y="1167.5" width="323.3" height="660.3"/>
          <path class="st2" d="M449,1830H125.7c-1.2,0-2.2-1-2.2-2.2v-660.3c0-1.2,1-2.2,2.2-2.2h323.3c1.2,0,2.2,1,2.2,2.2v660.3c0,1.2-1,2.2-2.2,2.2ZM127.9,1825.6h318.9v-655.9H127.9v655.9Z"/>
        </g>
      </g>
      <g>
        <g>
          <rect class="st0" x="519" y="1167.5" width="988.7" height="660.3"/>
          <path class="st2" d="M1507.7,1830h-988.7c-1.2,0-2.2-1-2.2-2.2v-660.3c0-1.2,1-2.2,2.2-2.2h988.7c1.2,0,2.2,1,2.2,2.2v660.3c0,1.2-1,2.2-2.2,2.2ZM521.2,1825.6h984.3v-655.9h-984.3v655.9Z"/>
        </g>
        <g>
          <polygon class="st0" points="1507.7 1167.5 519 1167.5 519 1097.1 1203.2 1097.1 1241.9 1146.4 1507.7 1167.5"/>
          <path class="st2" d="M1507.7,1169.7h-988.7c-1.2,0-2.2-1-2.2-2.2v-70.4c0-1.2,1-2.2,2.2-2.2h684.2c.7,0,1.3.3,1.7.8l38.1,48.6,264.8,21c1.2,0,2.1,1.1,2,2.3,0,1.2-1,2.1-2.2,2.1ZM521.2,1165.3h931l-210.4-16.7c-.6,0-1.2-.4-1.6-.8l-38.1-48.5h-680.9v66Z"/>
        </g>
        <g>
          <rect class="st0" x="615.6" y="1247.4" width="892.1" height="437"/>
          <path class="st2" d="M1507.7,1686.6h-892.1c-1.2,0-2.2-1-2.2-2.2v-437c0-1.2,1-2.2,2.2-2.2h892.1c1.2,0,2.2,1,2.2,2.2v437c0,1.2-1,2.2-2.2,2.2ZM617.8,1682.2h887.7v-432.6h-887.7v432.6Z"/>
        </g>
        <path class="st2" d="M928.8,1686.6c-1.2,0-2.2-1-2.2-2.2v-437c0-1.2,1-2.2,2.2-2.2s2.2,1,2.2,2.2v437c0,1.2-1,2.2-2.2,2.2Z"/>
        <path class="st2" d="M1241.9,1686.6c-1.2,0-2.2-1-2.2-2.2v-437c0-1.2,1-2.2,2.2-2.2s2.2,1,2.2,2.2v437c0,1.2-1,2.2-2.2,2.2Z"/>
      </g>
    </g>
    <g>
      <g>
        <g>
          <polygon class="st0" points="1542.1 568 1542.1 525 2740.6 525 2740.6 1541.8 1542.1 1541.8 1542.1 956.2 1542.1 568"/>
          <path class="st2" d="M2740.6,1544h-1198.5c-1.2,0-2.2-1-2.2-2.2v-585.5c0-1.2,1-2.2,2.2-2.2s2.2,1,2.2,2.2v583.3h1194.1v-1012.4h-1194.1v40.8c0,1.2-1,2.2-2.2,2.2s-2.2-1-2.2-2.2v-43c0-1.2,1-2.2,2.2-2.2h1198.5c1.2,0,2.2,1,2.2,2.2v1016.8c0,1.2-1,2.2-2.2,2.2Z"/>
        </g>
        <g>
          <circle class="st2" cx="2121.2" cy="1019.6" r="407" transform="translate(-99.7 1798.5) rotate(-45)"/>
          <path class="st0" d="M2121.1,1374.2c-93,0-180.7-35.7-247.4-100.7-140-136.5-142.8-361.4-6.3-501.4,136.5-140,361.4-142.8,501.4-6.3,67.8,66.1,105.8,154.7,107,249.4,1.2,94.7-34.6,184.2-100.7,252-66.1,67.8-154.7,105.8-249.4,107-1.5,0-3.1,0-4.6,0ZM2121.2,671.8c-90.6,0-181.1,35-249.2,104.9-134,137.4-131.2,358.1,6.2,492.1,65.5,63.8,151.6,98.8,242.8,98.8,1.5,0,3,0,4.5,0,92.9-1.2,179.9-38.5,244.8-105,64.9-66.5,100-154.4,98.8-247.3-1.2-92.9-38.5-179.9-105-244.8-67.5-65.9-155.3-98.7-242.9-98.7Z"/>
          <path class="st0" d="M2300.5,778.6c-.7,0-1.4-.2-2-.6-92.4-68-217.5-76.9-318.8-22.7-1.6.9-3.6.3-4.5-1.4-.9-1.6-.3-3.6,1.4-4.5,103.5-55.4,231.4-46.3,325.8,23.2,1.5,1.1,1.8,3.1.7,4.6-.6.9-1.6,1.3-2.7,1.3Z"/>
          <path class="st0" d="M1846,1149.7c-1.2,0-2.4-.7-3-1.9-27.4-59.6-35-127.9-21.3-192.3.4-1.8,2.1-2.9,3.9-2.5,1.8.4,2.9,2.1,2.5,3.9-13.4,63-6,129.8,20.9,188.1.8,1.7,0,3.6-1.6,4.4-.4.2-.9.3-1.4.3Z"/>
          <path class="st0" d="M2121.1,1325.7c-59.7,0-119.4-17.3-170.8-51.9-1.5-1-1.9-3.1-.9-4.6,1-1.5,3.1-1.9,4.6-.9,103.2,69.5,240.4,67.5,341.5-4.9,1.5-1.1,3.5-.7,4.6.8,1.1,1.5.7,3.5-.8,4.6-52.9,37.9-115.5,57-178.2,57Z"/>
          <path class="st0" d="M2410.2,1114.2c-.3,0-.7,0-1-.2-1.7-.5-2.7-2.4-2.2-4.1,12.9-41.1,16.9-85.4,11.4-128.3-.2-1.8,1.1-3.5,2.9-3.7,1.8-.2,3.5,1,3.7,2.9,5.6,43.8,1.5,89.1-11.7,131.1-.4,1.4-1.7,2.3-3.1,2.3Z"/>
          <path class="st0" d="M2412.6,1307c-.8,0-1.7-.3-2.3-.9l-582.7-568.3c-1.3-1.3-1.3-3.4,0-4.7,1.3-1.3,3.4-1.3,4.7,0l582.7,568.3c1.3,1.3,1.3,3.4,0,4.7-.6.7-1.5,1-2.4,1Z"/>
          <path class="st0" d="M1837.1,1314.3c-.8,0-1.7-.3-2.3-.9-1.3-1.3-1.3-3.4,0-4.7l568.2-582.7c1.3-1.3,3.4-1.3,4.7,0,1.3,1.3,1.3,3.4,0,4.7l-568.2,582.7c-.6.7-1.5,1-2.4,1Z"/>
          <circle class="st0" cx="2121.2" cy="1019.6" r="194.3" transform="translate(-99.7 1798.5) rotate(-45)"/>
        </g>
        <g>
          <path class="st2" d="M2511.1,1475.9c.2,14.3-11.2,26-25.5,26.2-14.3.2-26-11.2-26.2-25.5-.2-14.3,11.2-26,25.5-26.2,14.3-.2,26,11.2,26.2,25.5Z"/>
          <path class="st2" d="M2599.1,1474.8c.2,14.3-11.2,26-25.5,26.2-14.3.2-26-11.2-26.2-25.5-.2-14.3,11.2-26,25.5-26.2,14.3-.2,26,11.2,26.2,25.5Z"/>
          <path class="st2" d="M2687.1,1473.6c.2,14.3-11.2,26-25.5,26.2-14.3.2-26-11.2-26.2-25.5-.2-14.3,11.2-26,25.5-26.2,14.3-.2,26,11.2,26.2,25.5Z"/>
        </g>
      </g>
      <g>
        <g>
          <path class="st0" d="M1286,1110.1l-24.1-90.2s-181.7,36.1-268.8,125.7c0,0,25.6,271.7,188.7,291.2,163,19.5,454.9-294.3,474.1-314.2,19.1-19.9,18.2-46.8-44.4-8.4,0,0,78.5-47,78.5-80.9,0-28.7-51.5-2.7-103.9,31.4,0,0,111.5-72,91.8-99.7-11.5-16.2-47.6-8.5-144.9,54.9,0,0,54-33.5,78.7-58.4,25.5-25.6-.3-58.7-90.1-5.6-88.4,52.2-228.2,181.8-228.2,181.8l-7.4-27.6Z"/>
          <path class="st2" d="M1196.6,1440c-5.2,0-10.3-.3-15.2-.9-67.5-8.1-121.9-61.5-157.3-154.3-26.6-69.8-33.3-138.2-33.3-138.9,0-.6.2-1.3.6-1.7,86.6-89.1,268.2-126,270-126.4,1.2-.2,2.3.5,2.6,1.7.2,1.2-.5,2.3-1.7,2.6-1.8.4-181,36.8-267,124.4.9,8.7,8.3,72.1,33,136.8,24.2,63.6,70.5,141.5,153.6,151.4,145.3,17.4,396-233.3,469.4-310.6,1.2-1.3,2.1-2.3,2.8-2.9,8.3-8.6,12.4-18.4,9.3-22.2-1.3-1.6-9.5-8-49.3,16.1-.9.6-1.5.9-1.7,1-1,.6-2.4.3-3-.7-.6-1-.3-2.4.7-3,.3-.2.7-.4,1-.6,9-5.5,76.5-48.2,76.5-78.4,0-4.4-1.3-7.3-4.1-8.8-6.5-3.5-27.5-2.7-95.7,41.5-.4.2-.6.4-.8.5-1,.7-2.4.4-3-.7-.7-1-.4-2.4.6-3t0,0s0,0,0,0c0,0,.1,0,.2,0,4.4-2.9,86.9-57,92.7-87.2.7-3.7.2-6.7-1.6-9.3-11.6-16.3-52.5-1.5-128.4,46.7-8.1,5.3-13.4,8.7-13.6,8.8-1,.6-2.4.3-3-.7-.6-1-.4-2.4.7-3,4.7-3.1,9.3-6.1,13.8-8.9,17.7-11.6,47.9-32.5,64.6-49.2,8.4-8.4,11-17.7,6.6-23.6-6.9-9.4-31.6-11.7-78.3,12.7-1.1.6-2.4.1-3-.9-.6-1.1-.1-2.4.9-3,49.1-25.7,75.6-22.7,83.9-11.4,5.7,7.8,3,19.3-7,29.3-5.6,5.7-12.8,11.8-20.6,17.9,49.5-27.2,76.4-32.2,87-17.3,2.5,3.5,3.3,7.8,2.3,12.7-3.3,17.3-28.7,40.9-52.4,59.7,28.4-15.1,47.2-20.3,56.1-15.4,4.2,2.3,6.4,6.6,6.4,12.7,0,20.8-27.3,45.6-50,62.7,12.5-4.6,20.9-4.6,24.8.2,4.6,5.8.7,17.3-9.6,28-.6.7-1.6,1.6-2.8,2.9-71.3,75-309.1,312.8-457.9,312.8Z"/>
          <path class="st2" d="M1222.4,1194.2c-.7,0-1.3-.3-1.8-.9-.7-1-.5-2.3.4-3.1l58.5-44c1-.7,2.3-.5,3.1.4.7,1,.5,2.3-.4,3.1l-58.5,44c-.4.3-.9.4-1.3.4Z"/>
        </g>
        <path class="st1" d="M974.1,1170s143.3-19.1,309.3-134.2c0,0-50.2-199.3-105.6-361.3-20.5-59.7-91.6-73.4-155-45.5-141.2,62.1-48.6,541-48.6,541Z"/>
        <path class="st2" d="M958.9,1074.7c-1,0-1.9-.7-2.1-1.6l-45.5-175.9c-3.6-13.8-12.9-25.4-25.5-31.9-12.6-6.5-27.5-7.3-40.8-2.2-1.1.4-2.4-.1-2.8-1.3-.4-1.1.1-2.4,1.3-2.8,14.4-5.6,30.6-4.7,44.4,2.3,13.8,7.1,23.9,19.7,27.8,34.7l45.5,175.9c.3,1.2-.4,2.4-1.6,2.7-.2,0-.4,0-.6,0Z"/>
      </g>
      <g>
        <g>
          <path class="st0" d="M2334.9,525h67.1s63,80.4,86.8,77.5c23.7-3,8.8-34.6,8.8-34.6,0,0,22.4,38.5,46.1,34.7,23.7-3.8,10.4-34.7,10.4-34.7,0,0,20.3,34.5,41.1,34.9,20.8.4,4.9-38.9,4.9-38.9,0,0,11.9,27.8,26,24.7,14.1-3.2,11.1-89.5-42.3-109.4-39.1-14.5-135.4-9.2-184.2-5.2-18.5,1.5-35.4,11-46.3,26l-18.3,25.1Z"/>
          <path class="st2" d="M2595.4,605c-.1,0-.2,0-.4,0-14-.3-27.5-14.6-35.5-25.1.7,5.3.6,11.3-2.1,16.1-2.6,4.7-7.2,7.7-13.5,8.7-16.1,2.6-31.2-12.5-40.1-23.8.9,5.3.9,11.2-1.7,15.8-2.5,4.5-6.9,7.2-13.2,8-23.6,3-79.1-66-88.1-77.5h-66c-.8,0-1.6-.5-2-1.2-.4-.7-.3-1.6.2-2.3l18.3-25.1c11.3-15.5,28.8-25.3,47.9-26.9,52.4-4.2,146.2-9.1,185.2,5.4,38.4,14.3,52.8,63.5,50.7,93.9-.5,6.7-2.2,18.2-8.7,19.7-7.6,1.7-14.3-4-19.4-10.5,1.3,7.3,1.6,15.1-1.8,20-2.2,3.1-5.5,4.7-9.9,4.7ZM2554,565.7c.8,0,1.5.4,1.9,1.1.2.3,19.9,33.5,39.2,33.8,3.1,0,5.2-.9,6.6-2.8,5-7.2-1-26.3-3.7-33.1-.5-1.1,0-2.4,1.2-2.9,1.1-.5,2.4,0,2.9,1.2,3.1,7.3,13.4,25.7,23.5,23.4,2.1-.5,4.6-5.6,5.3-15.7,2-29-11.6-76-47.9-89.5-38.2-14.2-131.2-9.3-183.3-5.1-17.9,1.4-34.2,10.6-44.7,25.1l-15.7,21.6h62.8c.7,0,1.3.3,1.7.8,17.3,22.1,66.4,78.9,84.8,76.6,4.8-.6,8.1-2.5,9.8-5.7,5-9.1-2.7-25.6-2.8-25.7-.5-1.1,0-2.3,1-2.9,1-.5,2.3-.2,2.9.8.2.4,21.8,37.1,43.9,33.6,5-.8,8.4-2.9,10.4-6.4,5.1-9.3-1.6-25-1.7-25.2-.5-1.1,0-2.3,1-2.8.3-.2.7-.2,1-.2Z"/>
        </g>
        <path class="st2" d="M2497.5,570.1c-.7,0-1.4-.3-1.8-1l-54.8-80.9c-.7-1-.4-2.4.6-3.1s2.4-.4,3.1.6l54.8,80.9c.7,1,.4,2.4-.6,3.1-.4.3-.8.4-1.2.4Z"/>
        <g>
          <path class="st0" d="M2600,563.9l-47-76.9,47,76.9Z"/>
          <path class="st2" d="M2600,566.1c-.7,0-1.5-.4-1.9-1.1l-47-76.9c-.6-1-.3-2.4.7-3,1-.6,2.4-.3,3,.7l47,76.9c.6,1,.3,2.4-.7,3-.4.2-.8.3-1.1.3Z"/>
        </g>
        <path class="st2" d="M2554,570.1c-.7,0-1.4-.3-1.8-.9l-56.5-80.9c-.7-1-.5-2.4.5-3.1,1-.7,2.4-.4,3.1.5l56.5,80.9c.7,1,.5,2.4-.5,3.1-.4.3-.8.4-1.3.4Z"/>
      </g>
    </g>
    <g>
      <path class="st2" d="M2006.3,465.9c-.6,0-1.1-.2-1.6-.6-64.5-64.5-64.5-169.4,0-233.9s62.8-164.9,0-227.6c-.9-.9-.9-2.3,0-3.1s2.3-.9,3.1,0c64.5,64.5,64.5,169.4,0,233.9-62.8,62.8-62.8,164.9,0,227.6.9.9.9,2.3,0,3.1s-1,.6-1.6.6Z"/>
      <path class="st2" d="M2121.2,465.9c-.6,0-1.1-.2-1.6-.6-64.5-64.5-64.5-169.4,0-233.9,62.8-62.8,62.8-164.9,0-227.6-.9-.9-.9-2.3,0-3.1.9-.9,2.3-.9,3.1,0,64.5,64.5,64.5,169.4,0,233.9-62.8,62.8-62.8,164.9,0,227.6.9.9.9,2.3,0,3.1s-1,.6-1.6.6Z"/>
      <path class="st2" d="M2236.1,465.9c-.6,0-1.1-.2-1.6-.6-64.5-64.5-64.5-169.4,0-233.9,62.8-62.8,62.8-164.9,0-227.6-.9-.9-.9-2.3,0-3.1s2.3-.9,3.1,0c64.5,64.5,64.5,169.4,0,233.9s-62.8,164.9,0,227.6c.9.9.9,2.3,0,3.1s-1,.6-1.6.6Z"/>
    </g>
    <path class="st2" d="M2124.8,1686.6h-582.7c-1.2,0-2.2-1-2.2-2.2s1-2.2,2.2-2.2h580.5v-108.8c0-1.2,1-2.2,2.2-2.2s2.2,1,2.2,2.2v111c0,1.2-1,2.2-2.2,2.2Z"/>
    <g>
      <rect class="st2" x="417.2" y="39" width="508.3" height="508.3"/>
      <g>
        <path class="st0" d="M684.2,473.4c-.8,0-1.5-.4-1.9-1.2-1-1.8-24.1-45.7-12.1-116.7.2-1.2,1.3-2,2.5-1.8,1.2.2,2,1.3,1.8,2.5-11.7,69.6,11.4,113.5,11.6,113.9.6,1.1.2,2.4-.9,3-.3.2-.7.3-1,.3Z"/>
        <g>
          <path class="st0" d="M510.3,115.1s165.5,76.8,151.7,211.2c0,0-160.8,39.1-151.7-211.2Z"/>
          <path class="st2" d="M660.4,327.8c-40.8-43.9-82.4-96.4-120.4-152l3.6-2.5c37.8,55.4,79.3,107.8,119.9,151.5l-3.2,3Z"/>
        </g>
        <g>
          <path class="st0" d="M840.4,222.8s-134.1,9.6-161.5,116.4c0,0,108.9,64.8,161.5-116.4Z"/>
          <path class="st2" d="M681.6,341.4l-2-3.9c42.3-21,82.2-46.8,118.5-76.9l2.8,3.4c-36.6,30.3-76.8,56.4-119.4,77.5Z"/>
        </g>
      </g>
    </g>
  </g>
</svg>